# xmcd CD database file
#
# Track frame offsets:
#	150
#	14262
#	33402
#	50803
#	68585
#	88753
#	102849
#	121987
#	139379
#	157164
#
# Disc length: 2359 seconds
#
# Revision: 2
# Processed by: cddbd v1.5.2PL0 Copyright (c) Steve Scherf et al.
# Submitted via: CDex 1.70beta2
#
DISCID=8909350a
DTITLE=クロミ - おねがいマイメロディ ～くるくるシャッフル!～ Queen of Nightmare
DYEAR=2006
DGENRE=Anime
TTITLE0=クロミパンク'06
TTITLE1=ぶっちぎり☆逃亡天使
TTITLE2=ロミーの夢
TTITLE3=アタイはクロミ!
TTITLE4=クルミロンド (クロミ～クルミ・ヌイVer.～)
TTITLE5=クロミパンク'06 (オリジナルカラオケ)
TTITLE6=ぶっちぎり☆逃亡天使 (オリジナルカラオケ)
TTITLE7=ロミーの夢 (オリジナルカラオケ)
TTITLE8=アタイはクロミ! (オリジナルカラオケ)
TTITLE9=クルミロンド (オリジナルカラオケ)
EXTD=YEAR: 2006
EXTT0=
EXTT1=
EXTT2=
EXTT3=
EXTT4=
EXTT5=
EXTT6=
EXTT7=
EXTT8=
EXTT9=
PLAYORDER=
